<svg xmlns="http://www.w3.org/2000/svg" viewBox="0 0 263.74 66.69"><defs><style>.cls-1{fill:#5b6770;}</style></defs><g id="Layer_2" data-name="Layer 2"><g id="Layer_3" data-name="Layer 3"><path class="cls-1" d="M71.85,33.28c0-10.66,7.93-18.58,18.86-18.58A17.57,17.57,0,0,1,101.37,18l-2.18,6.28a14.42,14.42,0,0,0-8.75-3c-6.56,0-11.21,5.19-11.21,12s4.65,12,11.21,12a15.26,15.26,0,0,0,9-3l2.19,6.29a17.89,17.89,0,0,1-10.94,3.28C79.51,52.14,71.85,43.94,71.85,33.28Z"/><path class="cls-1" d="M115,34.1a11.49,11.49,0,0,1,5.74,1.37V33.83c0-2.46-1.64-4.1-4.92-4.1a14.51,14.51,0,0,0-7.11,1.91L106,26.72a23.49,23.49,0,0,1,10.66-3c8.75,0,11.21,4.64,11.21,10.66V51.32H121.6l-.55-1.64a9,9,0,0,1-6.56,2.46c-5.46,0-10.11-3.28-10.11-9C104.38,37.66,108.75,34.1,115,34.1Zm1.37,12.58c2.73,0,4.64-1.37,4.64-3.83S119.14,39,116.41,39s-4.65,1.64-4.65,3.83C111.49,45,113.67,46.68,116.41,46.68Z"/><path class="cls-1" d="M147.57,31.1c-5.19,0-7.38,3.28-7.38,8.74V51.6h-7.11V24.54h6.84v3.82a7.65,7.65,0,0,1,7.38-4.64V31.1Z"/><path class="cls-1" d="M162.33,23.72c8.47,0,13.12,5.46,13.12,14.48v1.64H156.59a6.74,6.74,0,0,0,7.11,6.29,8.28,8.28,0,0,0,6.56-3.28l4.64,3.55a12.81,12.81,0,0,1-11.2,6c-8.75,0-14.22-6-14.22-13.94C149.21,30,154.68,23.72,162.33,23.72Zm6,11.48a5.54,5.54,0,0,0-5.74-5.47,5.73,5.73,0,0,0-5.74,5.47Z"/><path class="cls-1" d="M180.1,15.24H191c7.93,0,12.3,4.92,12.3,10.66a10.7,10.7,0,0,1-5.47,9.57l8.48,15.85h-7.93L191.3,37.38h-3.82V51.6H180.1ZM190.76,31.1a4.59,4.59,0,0,0,4.92-4.92c0-3-1.92-4.65-5.2-4.65h-3V31.1Z"/><path class="cls-1" d="M221.37,23.72c8.47,0,13.12,5.46,13.12,14.48v1.64H215.63a6.74,6.74,0,0,0,7.11,6.29,8.28,8.28,0,0,0,6.56-3.28l4.64,3.55a12.81,12.81,0,0,1-11.2,6c-8.75,0-14.22-6-14.22-13.94C208,30,213.72,23.72,221.37,23.72Zm5.74,11.48a5.54,5.54,0,0,0-5.74-5.47,5.72,5.72,0,0,0-5.74,5.47Z"/><path class="cls-1" d="M245.42,51.32l-9.56-27.06h7.65l6.29,19.41,6.28-19.41h7.66l-9.57,27.06Z"/><path class="cls-1" d="M49.12,49.23a23,23,0,0,1-16,6.53A22.69,22.69,0,1,1,49,17.11L51.93,20l7.44-7.44-2.9-2.9A32.9,32.9,0,0,0,33.07,0a33.35,33.35,0,0,0,0,66.69,32.07,32.07,0,0,0,23.47-10l2.76-2.89L52,46.49Z"/><path class="cls-1" d="M19.05,33.35a14,14,0,0,0,14,14,14.21,14.21,0,0,0,14-14,14,14,0,1,0-28,0Z"/></g></g></svg>